<?xml version="1.0" encoding="utf-8"?>
<!-- Generator: Adobe Illustrator 26.4.1, SVG Export Plug-In . SVG Version: 6.00 Build 0)  -->
<svg version="1.1" id="Layer_2_copy" xmlns="http://www.w3.org/2000/svg" xmlns:xlink="http://www.w3.org/1999/xlink" x="0px"
	 y="0px" viewBox="0 0 631.72 326.58" style="enable-background:new 0 0 631.72 326.58;" xml:space="preserve">
<style type="text/css">
	.st0{fill:#FFFF24;}
	.st1{fill:#F95326;}
	.st2{fill:#F95326;stroke:#F95326;stroke-width:10;stroke-linejoin:round;stroke-miterlimit:10;}
</style>
<g>
	<path class="st0" d="M242.71,72.49c0-5.63,0.88-10.62,2.65-14.95c1.77-4.33,4.19-7.96,7.26-10.89c3.07-2.92,6.68-5.15,10.83-6.66
		c4.15-1.52,8.65-2.27,13.49-2.27c4.84,0,9.33,0.76,13.49,2.27c4.15,1.52,7.78,3.74,10.89,6.66c3.1,2.92,5.54,6.55,7.31,10.89
		c1.77,4.33,2.65,9.32,2.65,14.95s-0.87,10.63-2.6,15c-1.73,4.37-4.13,8.02-7.2,10.94c-3.07,2.92-6.7,5.15-10.89,6.66
		c-4.19,1.52-8.74,2.27-13.65,2.27c-4.91,0-9.46-0.78-13.65-2.33c-4.19-1.55-7.8-3.81-10.83-6.77c-3.03-2.96-5.42-6.61-7.15-10.94
		C243.58,82.99,242.71,78.05,242.71,72.49z M262.21,72.49c0,6.57,1.34,11.48,4.01,14.73c2.67,3.25,6.25,4.87,10.72,4.87
		c4.55,0,8.16-1.62,10.83-4.87c2.67-3.25,4.01-8.16,4.01-14.73c0-6.5-1.32-11.37-3.95-14.62c-2.64-3.25-6.23-4.87-10.78-4.87
		c-4.48,0-8.07,1.61-10.78,4.82C263.56,61.02,262.21,65.92,262.21,72.49z"/>
	<path class="st0" d="M344.86,51.15c4.33,0,8.36,0.56,12.08,1.68c3.72,1.12,6.91,2.83,9.59,5.15c2.67,2.31,4.77,5.22,6.28,8.72
		c1.52,3.5,2.27,7.67,2.27,12.51c0,4.62-0.65,8.67-1.95,12.13c-1.3,3.47-3.14,6.37-5.52,8.72c-2.38,2.35-5.25,4.1-8.61,5.25
		c-3.36,1.15-7.09,1.73-11.21,1.73c-3.11,0-6-0.47-8.67-1.41v17.98c-0.72,0.22-1.88,0.45-3.47,0.7c-1.59,0.25-3.21,0.38-4.87,0.38
		c-1.59,0-3.02-0.11-4.28-0.33c-1.26-0.22-2.33-0.65-3.2-1.3s-1.52-1.54-1.95-2.65c-0.43-1.12-0.65-2.58-0.65-4.39v-52
		c0-1.95,0.41-3.54,1.25-4.77c0.83-1.23,1.97-2.35,3.41-3.36c2.24-1.44,5.02-2.6,8.34-3.47C337.02,51.58,340.74,51.15,344.86,51.15z
		 M345.08,92.53c7.44,0,11.16-4.44,11.16-13.32c0-4.62-0.92-8.05-2.76-10.29c-1.84-2.24-4.5-3.36-7.96-3.36
		c-1.37,0-2.6,0.16-3.68,0.49c-1.08,0.32-2.02,0.7-2.82,1.14v23.83c0.87,0.43,1.8,0.8,2.82,1.08
		C342.84,92.38,343.92,92.53,345.08,92.53z"/>
	<path class="st0" d="M411.91,107.15c-4.26,0-8.22-0.6-11.86-1.79c-3.65-1.19-6.82-2.98-9.53-5.36c-2.71-2.38-4.84-5.38-6.39-8.99
		c-1.55-3.61-2.33-7.83-2.33-12.67c0-4.77,0.77-8.86,2.33-12.29c1.55-3.43,3.59-6.25,6.12-8.45c2.53-2.2,5.42-3.83,8.67-4.87
		c3.25-1.05,6.57-1.57,9.97-1.57c3.83,0,7.31,0.58,10.45,1.73c3.14,1.16,5.85,2.75,8.12,4.77c2.27,2.02,4.04,4.44,5.31,7.26
		c1.26,2.82,1.9,5.89,1.9,9.21c0,2.46-0.69,4.33-2.06,5.63c-1.37,1.3-3.29,2.13-5.74,2.49l-26.76,4.01
		c0.79,2.38,2.42,4.17,4.87,5.36c2.45,1.19,5.27,1.79,8.45,1.79c2.96,0,5.76-0.38,8.4-1.14c2.63-0.76,4.78-1.64,6.45-2.65
		c1.15,0.72,2.13,1.73,2.92,3.03c0.79,1.3,1.19,2.67,1.19,4.12c0,3.25-1.52,5.67-4.55,7.26c-2.31,1.23-4.91,2.06-7.8,2.49
		C417.15,106.93,414.44,107.15,411.91,107.15z M408.88,64.58c-1.73,0-3.23,0.29-4.5,0.87c-1.26,0.58-2.29,1.32-3.09,2.22
		c-0.8,0.9-1.39,1.91-1.79,3.03c-0.4,1.12-0.63,2.26-0.7,3.41l18.52-3.03c-0.22-1.44-1.01-2.89-2.38-4.33
		C413.57,65.3,411.55,64.58,408.88,64.58z"/>
	<path class="st0" d="M476.9,72.05c0-2.24-0.63-3.88-1.9-4.93c-1.26-1.05-2.98-1.57-5.15-1.57c-1.45,0-2.87,0.18-4.28,0.54
		c-1.41,0.36-2.62,0.9-3.63,1.62v37.59c-0.72,0.22-1.86,0.43-3.41,0.65c-1.55,0.22-3.16,0.33-4.82,0.33c-1.59,0-3.02-0.11-4.28-0.33
		c-1.26-0.22-2.33-0.65-3.2-1.3s-1.54-1.53-2-2.65c-0.47-1.12-0.7-2.58-0.7-4.39v-32.5c0-1.95,0.42-3.54,1.25-4.77
		c0.83-1.23,1.97-2.35,3.41-3.36c2.45-1.73,5.54-3.14,9.26-4.22c3.72-1.08,7.85-1.62,12.4-1.62c8.16,0,14.44,1.79,18.85,5.36
		c4.4,3.57,6.61,8.54,6.61,14.89v33.91c-0.72,0.22-1.86,0.43-3.41,0.65c-1.55,0.22-3.16,0.33-4.82,0.33c-1.59,0-3.02-0.11-4.28-0.33
		c-1.26-0.22-2.33-0.65-3.2-1.3c-0.87-0.65-1.54-1.53-2-2.65c-0.47-1.12-0.7-2.58-0.7-4.39V72.05z"/>
	<path class="st0" d="M242.93,163.91c-0.51-0.79-0.97-1.88-1.41-3.25c-0.43-1.37-0.65-2.82-0.65-4.33c0-2.82,0.63-4.84,1.9-6.07
		c1.26-1.23,2.91-1.84,4.93-1.84h47.23c0.5,0.8,0.98,1.88,1.41,3.25c0.43,1.37,0.65,2.82,0.65,4.33c0,2.82-0.63,4.84-1.9,6.07
		c-1.26,1.23-2.91,1.84-4.93,1.84h-12.02v50.04c-0.8,0.22-2.04,0.43-3.74,0.65c-1.7,0.22-3.38,0.33-5.04,0.33
		c-1.66,0-3.12-0.13-4.39-0.38c-1.26-0.25-2.33-0.7-3.2-1.35c-0.87-0.65-1.52-1.55-1.95-2.71c-0.43-1.15-0.65-2.67-0.65-4.55v-42.03
		H242.93z"/>
	<path class="st0" d="M318.86,214.28c-0.72,0.22-1.86,0.43-3.41,0.65c-1.55,0.22-3.16,0.32-4.82,0.32c-1.59,0-3.02-0.11-4.28-0.32
		c-1.26-0.22-2.33-0.65-3.2-1.3c-0.87-0.65-1.54-1.53-2-2.65c-0.47-1.12-0.7-2.58-0.7-4.39v-32.5c0-1.66,0.31-3.09,0.92-4.28
		c0.61-1.19,1.5-2.26,2.65-3.2c1.15-0.94,2.58-1.79,4.28-2.55c1.7-0.76,3.52-1.43,5.47-2c1.95-0.58,3.97-1.03,6.07-1.35
		c2.09-0.32,4.19-0.49,6.28-0.49c3.47,0,6.21,0.67,8.23,2c2.02,1.34,3.03,3.52,3.03,6.55c0,1.01-0.15,2-0.43,2.98
		c-0.29,0.97-0.65,1.86-1.08,2.65c-1.52,0-3.07,0.07-4.66,0.22c-1.59,0.15-3.14,0.36-4.66,0.65c-1.52,0.29-2.94,0.6-4.28,0.92
		c-1.34,0.32-2.47,0.7-3.41,1.14V214.28z"/>
	<path class="st0" d="M344.54,147.12c0-2.74,0.92-5.05,2.76-6.93c1.84-1.88,4.28-2.82,7.31-2.82s5.47,0.94,7.31,2.82
		c1.84,1.88,2.76,4.19,2.76,6.93c0,2.75-0.92,5.06-2.76,6.93c-1.84,1.88-4.28,2.82-7.31,2.82s-5.47-0.94-7.31-2.82
		C345.46,152.18,344.54,149.87,344.54,147.12z M363.82,214.28c-0.8,0.14-1.97,0.34-3.52,0.6c-1.55,0.25-3.12,0.38-4.71,0.38
		c-1.59,0-3.02-0.11-4.28-0.32c-1.26-0.22-2.33-0.65-3.2-1.3c-0.87-0.65-1.54-1.53-2-2.65c-0.47-1.12-0.7-2.58-0.7-4.39v-44.09
		c0.79-0.14,1.97-0.34,3.52-0.6c1.55-0.25,3.12-0.38,4.71-0.38c1.59,0,3.01,0.11,4.28,0.33c1.26,0.22,2.33,0.65,3.2,1.3
		c0.87,0.65,1.53,1.54,2,2.65c0.47,1.12,0.7,2.58,0.7,4.39V214.28z"/>
	<path class="st0" d="M410.72,212.98c-1.01,0.8-2.49,1.44-4.44,1.95c-1.95,0.5-4.15,0.76-6.61,0.76c-2.82,0-5.25-0.36-7.31-1.08
		c-2.06-0.72-3.49-1.88-4.28-3.47c-0.65-1.23-1.43-2.94-2.33-5.15c-0.9-2.2-1.86-4.66-2.87-7.37c-1.01-2.71-2.06-5.61-3.14-8.72
		c-1.08-3.1-2.11-6.17-3.09-9.21c-0.98-3.03-1.86-5.96-2.65-8.77c-0.8-2.82-1.45-5.31-1.95-7.47c1.01-1.01,2.37-1.9,4.06-2.65
		c1.7-0.76,3.56-1.14,5.58-1.14c2.53,0,4.6,0.52,6.23,1.57c1.62,1.05,2.83,3.02,3.63,5.9l4.22,16.57c0.79,3.25,1.55,6.19,2.27,8.83
		c0.72,2.64,1.26,4.68,1.62,6.12h0.54c1.37-5.34,2.82-11.27,4.33-17.76s2.89-12.89,4.12-19.17c1.23-0.65,2.62-1.15,4.17-1.52
		c1.55-0.36,3.05-0.54,4.5-0.54c2.53,0,4.66,0.54,6.39,1.62c1.73,1.08,2.6,2.96,2.6,5.63c0,1.16-0.27,2.83-0.81,5.04
		c-0.54,2.2-1.23,4.7-2.06,7.47c-0.83,2.78-1.81,5.72-2.92,8.83c-1.12,3.11-2.26,6.14-3.41,9.1c-1.16,2.96-2.29,5.72-3.41,8.29
		C412.58,209.21,411.59,211.32,410.72,212.98z"/>
	<path class="st0" d="M434.12,147.12c0-2.74,0.92-5.05,2.76-6.93c1.84-1.88,4.28-2.82,7.31-2.82s5.47,0.94,7.31,2.82
		c1.84,1.88,2.76,4.19,2.76,6.93c0,2.75-0.92,5.06-2.76,6.93c-1.84,1.88-4.28,2.82-7.31,2.82s-5.47-0.94-7.31-2.82
		C435.04,152.18,434.12,149.87,434.12,147.12z M453.4,214.28c-0.8,0.14-1.97,0.34-3.52,0.6c-1.55,0.25-3.12,0.38-4.71,0.38
		c-1.59,0-3.02-0.11-4.28-0.32c-1.26-0.22-2.33-0.65-3.2-1.3c-0.87-0.65-1.54-1.53-2-2.65c-0.47-1.12-0.7-2.58-0.7-4.39v-44.09
		c0.79-0.14,1.97-0.34,3.52-0.6c1.55-0.25,3.12-0.38,4.71-0.38c1.59,0,3.01,0.11,4.28,0.33c1.26,0.22,2.33,0.65,3.2,1.3
		c0.87,0.65,1.53,1.54,2,2.65c0.47,1.12,0.7,2.58,0.7,4.39V214.28z"/>
	<path class="st0" d="M486.77,160.12c3.9,0,7.46,0.4,10.67,1.19c3.21,0.8,5.96,2,8.23,3.63c2.27,1.62,4.02,3.68,5.25,6.17
		c1.23,2.49,1.84,5.43,1.84,8.83v24.26c0,1.88-0.52,3.41-1.57,4.6c-1.05,1.19-2.29,2.22-3.74,3.09c-4.7,2.82-11.3,4.22-19.82,4.22
		c-3.83,0-7.28-0.36-10.34-1.08c-3.07-0.72-5.71-1.8-7.91-3.25c-2.2-1.44-3.9-3.29-5.09-5.52c-1.19-2.24-1.79-4.84-1.79-7.8
		c0-4.98,1.48-8.81,4.44-11.48c2.96-2.67,7.54-4.33,13.76-4.98l14.19-1.52v-0.76c0-2.09-0.92-3.59-2.76-4.5
		c-1.84-0.9-4.5-1.35-7.96-1.35c-2.75,0-5.42,0.29-8.02,0.87c-2.6,0.58-4.95,1.3-7.04,2.17c-0.94-0.65-1.73-1.64-2.38-2.98
		c-0.65-1.33-0.97-2.72-0.97-4.17c0-1.88,0.45-3.38,1.35-4.5c0.9-1.12,2.29-2.08,4.17-2.87c2.09-0.79,4.57-1.37,7.42-1.73
		C481.55,160.3,484.24,160.12,486.77,160.12z M487.63,202.69c1.23,0,2.58-0.12,4.06-0.38c1.48-0.25,2.58-0.6,3.3-1.03v-8.67
		l-7.8,0.65c-2.02,0.15-3.68,0.58-4.98,1.3c-1.3,0.72-1.95,1.81-1.95,3.25c0,1.45,0.56,2.62,1.68,3.52
		C483.06,202.24,484.96,202.69,487.63,202.69z"/>
	<path class="st0" d="M542.44,196.3c0,1.88,0.6,3.21,1.79,4.01c1.19,0.8,2.87,1.19,5.04,1.19c1.08,0,2.2-0.09,3.36-0.27
		c1.15-0.18,2.17-0.42,3.03-0.7c0.65,0.79,1.21,1.68,1.68,2.65c0.47,0.98,0.7,2.15,0.7,3.52c0,2.75-1.03,4.98-3.09,6.72
		c-2.06,1.73-5.69,2.6-10.89,2.6c-6.36,0-11.25-1.45-14.68-4.33c-3.43-2.89-5.15-7.58-5.15-14.08v-46.36
		c0.79-0.22,1.93-0.45,3.41-0.7c1.48-0.25,3.05-0.38,4.71-0.38c3.18,0,5.65,0.56,7.42,1.68c1.77,1.12,2.65,3.48,2.65,7.1v6.93h14.19
		c0.43,0.79,0.85,1.79,1.25,2.98c0.4,1.19,0.6,2.51,0.6,3.95c0,2.53-0.56,4.35-1.68,5.47c-1.12,1.12-2.62,1.68-4.5,1.68h-9.86V196.3
		z"/>
	<path class="st0" d="M589.02,160.12c3.9,0,7.46,0.4,10.67,1.19c3.21,0.8,5.96,2,8.23,3.63c2.27,1.62,4.02,3.68,5.25,6.17
		c1.23,2.49,1.84,5.43,1.84,8.83v24.26c0,1.88-0.52,3.41-1.57,4.6c-1.05,1.19-2.29,2.22-3.74,3.09c-4.7,2.82-11.3,4.22-19.82,4.22
		c-3.83,0-7.28-0.36-10.34-1.08c-3.07-0.72-5.71-1.8-7.91-3.25c-2.2-1.44-3.9-3.29-5.09-5.52c-1.19-2.24-1.79-4.84-1.79-7.8
		c0-4.98,1.48-8.81,4.44-11.48c2.96-2.67,7.54-4.33,13.76-4.98l14.19-1.52v-0.76c0-2.09-0.92-3.59-2.76-4.5
		c-1.84-0.9-4.5-1.35-7.96-1.35c-2.75,0-5.42,0.29-8.02,0.87c-2.6,0.58-4.95,1.3-7.04,2.17c-0.94-0.65-1.73-1.64-2.38-2.98
		c-0.65-1.33-0.97-2.72-0.97-4.17c0-1.88,0.45-3.38,1.35-4.5c0.9-1.12,2.29-2.08,4.17-2.87c2.09-0.79,4.57-1.37,7.42-1.73
		C583.8,160.3,586.49,160.12,589.02,160.12z M589.89,202.69c1.23,0,2.58-0.12,4.06-0.38c1.48-0.25,2.58-0.6,3.3-1.03v-8.67
		l-7.8,0.65c-2.02,0.15-3.68,0.58-4.98,1.3c-1.3,0.72-1.95,1.81-1.95,3.25c0,1.45,0.56,2.62,1.68,3.52
		C585.32,202.24,587.21,202.69,589.89,202.69z"/>
	<path class="st1" d="M264.88,301.8c-1,0-2.14-0.03-3.43-0.09c-1.29-0.06-2.63-0.18-4-0.35c-1.38-0.18-2.76-0.4-4.14-0.66
		c-1.38-0.26-2.66-0.63-3.83-1.1c-3.23-1.23-4.84-3.37-4.84-6.42v-41.1c0-1.23,0.34-2.19,1.01-2.86c0.67-0.67,1.6-1.22,2.77-1.63
		c2.52-0.82,5.19-1.36,8.01-1.63c2.82-0.26,5.34-0.4,7.57-0.4c4.58,0,8.73,0.56,12.45,1.67c3.72,1.12,6.92,2.83,9.59,5.15
		c2.67,2.32,4.74,5.24,6.2,8.76c1.47,3.52,2.2,7.69,2.2,12.5c0,4.69-0.7,8.79-2.11,12.28s-3.42,6.42-6.03,8.8
		c-2.61,2.38-5.74,4.15-9.37,5.32C273.3,301.21,269.28,301.8,264.88,301.8z M259.95,288.95c0.64,0.12,1.44,0.22,2.38,0.31
		c0.94,0.09,1.82,0.13,2.64,0.13c1.99,0,3.83-0.29,5.5-0.88c1.67-0.59,3.11-1.5,4.31-2.73c1.2-1.23,2.14-2.83,2.82-4.8
		c0.67-1.96,1.01-4.33,1.01-7.08c0-5.28-1.23-9.25-3.7-11.92c-2.46-2.67-5.75-4-9.86-4c-0.82,0-1.66,0.03-2.51,0.09
		c-0.85,0.06-1.72,0.15-2.6,0.26V288.95z"/>
	<path class="st1" d="M319.7,256.3c3.17,0,6.06,0.32,8.67,0.97c2.61,0.65,4.84,1.63,6.69,2.95s3.27,2.99,4.27,5.02
		c1,2.02,1.5,4.42,1.5,7.17v19.71c0,1.53-0.43,2.77-1.28,3.74c-0.85,0.97-1.86,1.8-3.04,2.51c-3.81,2.29-9.18,3.43-16.1,3.43
		c-3.11,0-5.91-0.29-8.4-0.88c-2.49-0.59-4.64-1.47-6.42-2.64c-1.79-1.17-3.17-2.67-4.14-4.49s-1.45-3.93-1.45-6.34
		c0-4.05,1.2-7.16,3.61-9.33c2.41-2.17,6.13-3.52,11.18-4.05l11.53-1.23v-0.62c0-1.7-0.75-2.92-2.24-3.65s-3.65-1.1-6.47-1.1
		c-2.23,0-4.4,0.24-6.51,0.7c-2.11,0.47-4.02,1.06-5.72,1.76c-0.76-0.53-1.41-1.33-1.94-2.42c-0.53-1.08-0.79-2.21-0.79-3.39
		c0-1.53,0.37-2.74,1.1-3.65c0.73-0.91,1.86-1.69,3.39-2.33c1.7-0.64,3.71-1.11,6.03-1.41C315.46,256.45,317.65,256.3,319.7,256.3z
		 M320.41,290.89c1,0,2.1-0.1,3.3-0.31c1.2-0.21,2.1-0.48,2.68-0.84v-7.04l-6.34,0.53c-1.64,0.12-2.99,0.47-4.05,1.06
		c-1.06,0.59-1.58,1.47-1.58,2.64c0,1.17,0.45,2.13,1.36,2.86C316.7,290.52,318.24,290.89,320.41,290.89z"/>
	<path class="st1" d="M364.93,285.7c0,1.53,0.48,2.61,1.45,3.26c0.97,0.65,2.33,0.97,4.09,0.97c0.88,0,1.79-0.07,2.73-0.22
		c0.94-0.15,1.76-0.34,2.46-0.57c0.53,0.65,0.98,1.36,1.36,2.16s0.57,1.75,0.57,2.86c0,2.23-0.84,4.05-2.51,5.46
		s-4.62,2.11-8.84,2.11c-5.16,0-9.14-1.17-11.92-3.52c-2.79-2.35-4.18-6.16-4.18-11.44v-37.66c0.64-0.18,1.57-0.37,2.77-0.57
		c1.2-0.21,2.48-0.31,3.83-0.31c2.58,0,4.59,0.46,6.03,1.36c1.44,0.91,2.16,2.83,2.16,5.76v5.63h11.53
		c0.35,0.65,0.69,1.45,1.01,2.42c0.32,0.97,0.48,2.04,0.48,3.21c0,2.05-0.46,3.54-1.36,4.44c-0.91,0.91-2.13,1.36-3.65,1.36h-8.01
		V285.7z"/>
	<path class="st1" d="M402.77,256.3c3.17,0,6.06,0.32,8.67,0.97c2.61,0.65,4.84,1.63,6.69,2.95c1.85,1.32,3.27,2.99,4.27,5.02
		c1,2.02,1.5,4.42,1.5,7.17v19.71c0,1.53-0.43,2.77-1.28,3.74s-1.86,1.8-3.04,2.51c-3.81,2.29-9.18,3.43-16.1,3.43
		c-3.11,0-5.91-0.29-8.4-0.88c-2.49-0.59-4.63-1.47-6.42-2.64c-1.79-1.17-3.17-2.67-4.14-4.49s-1.45-3.93-1.45-6.34
		c0-4.05,1.2-7.16,3.61-9.33c2.4-2.17,6.13-3.52,11.18-4.05l11.53-1.23v-0.62c0-1.7-0.75-2.92-2.24-3.65s-3.65-1.1-6.47-1.1
		c-2.23,0-4.4,0.24-6.51,0.7c-2.11,0.47-4.02,1.06-5.72,1.76c-0.76-0.53-1.41-1.33-1.94-2.42c-0.53-1.08-0.79-2.21-0.79-3.39
		c0-1.53,0.37-2.74,1.1-3.65c0.73-0.91,1.86-1.69,3.39-2.33c1.7-0.64,3.71-1.11,6.03-1.41C398.54,256.45,400.72,256.3,402.77,256.3z
		 M403.48,290.89c1,0,2.1-0.1,3.3-0.31c1.2-0.21,2.1-0.48,2.68-0.84v-7.04l-6.34,0.53c-1.64,0.12-2.99,0.47-4.05,1.06
		c-1.06,0.59-1.58,1.47-1.58,2.64c0,1.17,0.45,2.13,1.36,2.86C399.77,290.52,401.31,290.89,403.48,290.89z"/>
	<path class="st1" d="M433.22,243.1c0.59-0.18,1.53-0.37,2.82-0.57c1.29-0.2,2.61-0.31,3.96-0.31c1.29,0,2.45,0.09,3.48,0.26
		c1.03,0.18,1.89,0.53,2.6,1.06c0.7,0.53,1.23,1.25,1.58,2.16c0.35,0.91,0.53,2.1,0.53,3.56v8.62c1.47-0.59,2.86-1,4.18-1.23
		c1.32-0.23,2.77-0.35,4.36-0.35c2.82,0,5.48,0.5,8.01,1.5c2.52,1,4.75,2.45,6.69,4.36c1.94,1.91,3.46,4.27,4.58,7.08
		c1.11,2.82,1.67,6.07,1.67,9.77c0,3.81-0.57,7.14-1.72,9.99c-1.14,2.85-2.74,5.21-4.8,7.08c-2.05,1.88-4.56,3.3-7.52,4.27
		c-2.96,0.97-6.23,1.45-9.81,1.45c-3.87,0-7.16-0.46-9.86-1.36c-2.7-0.91-4.99-2.04-6.86-3.39c-2.58-1.82-3.87-4.17-3.87-7.04V243.1
		z M453.81,290.01c2.7,0,4.8-0.92,6.29-2.77c1.5-1.85,2.24-4.59,2.24-8.23c0-3.7-0.76-6.45-2.29-8.27
		c-1.53-1.82-3.58-2.73-6.16-2.73c-1.17,0-2.19,0.12-3.04,0.35c-0.85,0.24-1.78,0.59-2.77,1.06v19.18c0.64,0.41,1.42,0.75,2.33,1.01
		C451.34,289.88,452.46,290.01,453.81,290.01z"/>
	<path class="st1" d="M502.74,256.3c3.17,0,6.06,0.32,8.67,0.97c2.61,0.65,4.84,1.63,6.69,2.95c1.85,1.32,3.27,2.99,4.27,5.02
		c1,2.02,1.5,4.42,1.5,7.17v19.71c0,1.53-0.43,2.77-1.28,3.74s-1.86,1.8-3.04,2.51c-3.81,2.29-9.18,3.43-16.1,3.43
		c-3.11,0-5.91-0.29-8.4-0.88c-2.49-0.59-4.63-1.47-6.42-2.64c-1.79-1.17-3.17-2.67-4.14-4.49s-1.45-3.93-1.45-6.34
		c0-4.05,1.2-7.16,3.61-9.33c2.4-2.17,6.13-3.52,11.18-4.05l11.53-1.23v-0.62c0-1.7-0.75-2.92-2.24-3.65s-3.65-1.1-6.47-1.1
		c-2.23,0-4.4,0.24-6.51,0.7c-2.11,0.47-4.02,1.06-5.72,1.76c-0.76-0.53-1.41-1.33-1.94-2.42c-0.53-1.08-0.79-2.21-0.79-3.39
		c0-1.53,0.37-2.74,1.1-3.65c0.73-0.91,1.86-1.69,3.39-2.33c1.7-0.64,3.71-1.11,6.03-1.41C498.5,256.45,500.69,256.3,502.74,256.3z
		 M503.45,290.89c1,0,2.1-0.1,3.3-0.31c1.2-0.21,2.1-0.48,2.68-0.84v-7.04l-6.34,0.53c-1.64,0.12-2.99,0.47-4.05,1.06
		c-1.06,0.59-1.58,1.47-1.58,2.64c0,1.17,0.45,2.13,1.36,2.86C499.73,290.52,501.27,290.89,503.45,290.89z"/>
	<path class="st1" d="M569.09,287.63c0,4.46-1.67,7.95-5.02,10.47c-3.34,2.52-8.27,3.78-14.78,3.78c-2.46,0-4.75-0.18-6.86-0.53
		c-2.11-0.35-3.92-0.89-5.41-1.63c-1.5-0.73-2.67-1.66-3.52-2.77c-0.85-1.11-1.28-2.43-1.28-3.96c0-1.41,0.29-2.6,0.88-3.56
		c0.59-0.97,1.29-1.77,2.11-2.42c1.7,0.94,3.65,1.78,5.85,2.51c2.2,0.73,4.74,1.1,7.61,1.1c1.82,0,3.21-0.26,4.18-0.79
		c0.97-0.53,1.45-1.23,1.45-2.11c0-0.82-0.35-1.47-1.06-1.94c-0.7-0.47-1.88-0.85-3.52-1.14l-2.64-0.53c-5.1-1-8.9-2.57-11.4-4.71
		c-2.49-2.14-3.74-5.21-3.74-9.2c0-2.17,0.47-4.14,1.41-5.9s2.26-3.23,3.96-4.4c1.7-1.17,3.74-2.08,6.12-2.73
		c2.38-0.64,5-0.97,7.88-0.97c2.17,0,4.21,0.16,6.12,0.48c1.91,0.32,3.56,0.81,4.97,1.45c1.41,0.65,2.52,1.48,3.34,2.51
		c0.82,1.03,1.23,2.24,1.23,3.65c0,1.35-0.25,2.51-0.75,3.48c-0.5,0.97-1.13,1.77-1.89,2.42c-0.47-0.29-1.17-0.6-2.11-0.92
		c-0.94-0.32-1.97-0.62-3.08-0.88c-1.12-0.26-2.24-0.48-3.39-0.66c-1.14-0.18-2.19-0.26-3.12-0.26c-1.94,0-3.43,0.22-4.49,0.66
		s-1.58,1.13-1.58,2.07c0,0.65,0.29,1.17,0.88,1.58c0.59,0.41,1.7,0.79,3.34,1.14l2.73,0.62c5.63,1.29,9.64,3.07,12.01,5.32
		C567.9,281.14,569.09,284.05,569.09,287.63z"/>
	<path class="st1" d="M599.36,301.8c-3.46,0-6.67-0.48-9.64-1.45c-2.96-0.97-5.54-2.42-7.74-4.36c-2.2-1.94-3.93-4.37-5.19-7.3
		c-1.26-2.93-1.89-6.37-1.89-10.3c0-3.87,0.63-7.2,1.89-9.99c1.26-2.79,2.92-5.07,4.97-6.86c2.05-1.79,4.4-3.11,7.04-3.96
		c2.64-0.85,5.34-1.28,8.1-1.28c3.11,0,5.94,0.47,8.49,1.41c2.55,0.94,4.75,2.23,6.6,3.87c1.85,1.64,3.28,3.61,4.31,5.9
		c1.03,2.29,1.54,4.78,1.54,7.48c0,2-0.56,3.52-1.67,4.58c-1.12,1.06-2.67,1.73-4.66,2.02l-21.74,3.26
		c0.65,1.94,1.96,3.39,3.96,4.36c1.99,0.97,4.28,1.45,6.86,1.45c2.41,0,4.68-0.31,6.82-0.92c2.14-0.62,3.89-1.33,5.24-2.16
		c0.94,0.59,1.73,1.41,2.38,2.46c0.64,1.06,0.97,2.17,0.97,3.34c0,2.64-1.23,4.61-3.7,5.9c-1.88,1-3.99,1.67-6.34,2.02
		C603.62,301.62,601.42,301.8,599.36,301.8z M596.9,267.22c-1.41,0-2.63,0.24-3.65,0.7c-1.03,0.47-1.86,1.07-2.51,1.8
		c-0.65,0.73-1.13,1.55-1.45,2.46c-0.32,0.91-0.51,1.83-0.57,2.77l15.05-2.46c-0.18-1.17-0.82-2.35-1.94-3.52
		C600.71,267.8,599.07,267.22,596.9,267.22z"/>
</g>
<path class="st2" d="M184.15,164.59c-4.78,21.73-28.25,37.74-49.99,41.79l0.65,10.98H75.53l-4.16-68.02
	c-2.6,1.25-5.26,2.72-7.97,4.46l-32.35-27.87L18.41,42.6c37.44-22.21,62.25-26.44,89.75-26.44s73.66,6.73,89.43,43.27
	c3.32,7.7,4.26,15.09,3.33,22L184.15,164.59z"/>
<path class="st2" d="M158.46,204.25c0-25.34-23.64-45.88-52.8-45.88c-29.16,0-52.8,20.54-52.8,45.88c0,2.12,0.18,4.21,0.5,6.25
	l-0.01,0l11.11,69.99h0.01c2.52,17.59,19.77,31.2,40.69,31.2c20.92,0,38.17-13.61,40.69-31.2h0.01l11.81-68.32l-0.02,0
	C158.18,209.61,158.46,206.96,158.46,204.25z"/>
<ellipse class="st0" cx="105.66" cy="204.25" rx="52.8" ry="45.88"/>
<path class="st0" d="M56.83,73.35L18.41,42.6c37.44-22.21,62.25-26.44,89.75-26.44s73.66,6.73,89.43,43.27s-22.31,65.97-56.74,71.93
	l0.77,12.12H71.23l1.54-49.04c38.85,0.38,58.27-12.5,50-23.46C118.07,64.74,91.07,53.03,56.83,73.35z"/>
<path class="st0" d="M105.52,272.94c20.87,0,38.75-11.08,46.29-26.84l1.54-8.89c-6.38,17.68-25.38,30.5-47.83,30.5
	c-22.7,0-41.87-13.12-48.03-31.1l1.38,8.7C66.19,261.48,84.31,272.94,105.52,272.94z"/>
<path class="st0" d="M105.33,295.98c18.4,0,34.29-9.29,41.79-22.76l1.12-6.48c-6.93,14.64-23.53,24.96-42.91,24.96
	c-19.61,0-36.36-10.56-43.14-25.47l1,6.32C70.53,286.38,86.63,295.98,105.33,295.98z"/>
</svg>
